<?xml version="1.0" encoding="UTF-8"?>
<svg xmlns="http://www.w3.org/2000/svg" viewBox="0 0 42 42" role="img" aria-labelledby="title description" shape-rendering="geometricPrecision">
  <title id="title">OpsCapsule brand mark</title>
  <desc id="description">A terminal prompt and cursor surrounded by two open capsule rings.</desc>

  <g fill="none" stroke-linecap="round">
    <path d="M 18 4.5 C 10.2 5.8 4.5 12.4 4.5 21 C 4.5 29.6 10.2 36.2 18 37.5" stroke="#43e7ea" stroke-width="3" />
    <path d="M 24 4.5 C 31.8 5.8 37.5 12.4 37.5 21 C 37.5 29.6 31.8 36.2 24 37.5" stroke="#43e7ea" stroke-width="3" />
    <path d="M 18.5 10 C 13.2 11 9.5 15.4 9.5 21 C 9.5 26.6 13.2 31 18.5 32" stroke="#38c5c1" stroke-width="2.5" />
    <path d="M 23.5 10 C 28.8 11 32.5 15.4 32.5 21 C 32.5 26.6 28.8 31 23.5 32" stroke="#38c5c1" stroke-width="2.5" />
  </g>

  <path d="M 17.5 16 L 23 21 L 17.5 26" fill="none" stroke="#faf7f0" stroke-width="3" stroke-linecap="round" stroke-linejoin="round" />
  <rect x="26" y="24.5" width="3" height="3" rx="0.4" fill="#faf7f0" />
</svg>
